<svg xmlns="http://www.w3.org/2000/svg" width="1200" height="700" viewBox="0 0 1200 700"><rect x="0" y="0" width="1200" height="700" fill="white" /><text x="40" y="35" font-size="24" font-family="monospace">TXTRS-AV healthy retiree mortality fit, 2021</text><text x="40" y="58" font-size="14" font-family="monospace">Estimated 2021 curve vs projected PubT-2010(B) reference and published 2021 checkpoints. Y-axis is log10(qx).</text><rect x="80" y="80" width="480" height="500" fill="none" stroke="#333" stroke-width="1"/><text x="80" y="65" font-size="18" font-family="monospace">Male</text><line x1="80.00" y1="80" x2="80.00" y2="580" stroke="#eee" stroke-width="1"/><text x="70.00" y="600" font-size="12" font-family="monospace">20</text><line x1="128.00" y1="80" x2="128.00" y2="580" stroke="#eee" stroke-width="1"/><text x="118.00" y="600" font-size="12" font-family="monospace">30</text><line x1="176.00" y1="80" x2="176.00" y2="580" stroke="#eee" stroke-width="1"/><text x="166.00" y="600" font-size="12" font-family="monospace">40</text><line x1="224.00" y1="80" x2="224.00" y2="580" stroke="#eee" stroke-width="1"/><text x="214.00" y="600" font-size="12" font-family="monospace">50</text><line x1="272.00" y1="80" x2="272.00" y2="580" stroke="#eee" stroke-width="1"/><text x="262.00" y="600" font-size="12" font-family="monospace">60</text><line x1="320.00" y1="80" x2="320.00" y2="580" stroke="#eee" stroke-width="1"/><text x="310.00" y="600" font-size="12" font-family="monospace">70</text><line x1="368.00" y1="80" x2="368.00" y2="580" stroke="#eee" stroke-width="1"/><text x="358.00" y="600" font-size="12" font-family="monospace">80</text><line x1="416.00" y1="80" x2="416.00" y2="580" stroke="#eee" stroke-width="1"/><text x="406.00" y="600" font-size="12" font-family="monospace">90</text><line x1="464.00" y1="80" x2="464.00" y2="580" stroke="#eee" stroke-width="1"/><text x="454.00" y="600" font-size="12" font-family="monospace">100</text><line x1="512.00" y1="80" x2="512.00" y2="580" stroke="#eee" stroke-width="1"/><text x="502.00" y="600" font-size="12" font-family="monospace">110</text><line x1="560.00" y1="80" x2="560.00" y2="580" stroke="#eee" stroke-width="1"/><text x="550.00" y="600" font-size="12" font-family="monospace">120</text><line x1="80" y1="524.44" x2="560" y2="524.44" stroke="#eee" stroke-width="1"/><text x="20" y="528.44" font-size="12" font-family="monospace">1e-04</text><line x1="80" y1="413.33" x2="560" y2="413.33" stroke="#eee" stroke-width="1"/><text x="20" y="417.33" font-size="12" font-family="monospace">1e-03</text><line x1="80" y1="302.22" x2="560" y2="302.22" stroke="#eee" stroke-width="1"/><text x="20" y="306.22" font-size="12" font-family="monospace">1e-02</text><line x1="80" y1="191.11" x2="560" y2="191.11" stroke="#eee" stroke-width="1"/><text x="20" y="195.11" font-size="12" font-family="monospace">1e-01</text><line x1="80" y1="80.00" x2="560" y2="80.00" stroke="#eee" stroke-width="1"/><text x="20" y="84.00" font-size="12" font-family="monospace">1e+00</text><polyline fill="none" stroke="#999999" stroke-width="2.0" stroke-dasharray="6 4" points="80.00,471.21 84.80,475.53 89.60,480.28 94.40,487.44 99.20,491.47 104.00,493.61 108.80,491.47 113.60,487.44 118.40,485.55 123.20,481.97 128.00,478.65 132.80,475.53 137.60,472.61 142.40,469.85 147.20,467.24 152.00,463.57 156.80,461.27 161.60,458.02 166.40,454.97 171.20,451.18 176.00,447.67 180.80,443.62 185.60,439.87 190.40,435.08 195.20,430.72 200.00,425.63 204.80,420.55 209.60,415.51 214.40,410.95 219.20,406.07 224.00,401.31 228.80,396.68 233.60,392.18 238.40,387.83 243.20,383.84 248.00,360.23 252.80,356.90 257.60,353.65 262.40,350.27 267.20,347.01 272.00,343.76 276.80,340.53 281.60,337.24 286.40,333.79 291.20,330.14 296.00,326.43 300.80,321.17 305.60,315.84 310.40,310.28 315.20,304.56 320.00,298.78 324.80,292.87 329.60,286.86 334.40,280.86 339.20,274.79 344.00,268.74 348.80,262.70 353.60,256.67 358.40,250.71 363.20,244.75 368.00,238.87 372.80,232.78 377.60,226.73 382.40,220.61 387.20,214.50 392.00,208.48 396.80,202.46 401.60,196.52 406.40,190.73 411.20,184.98 416.00,179.35 420.80,173.91 425.60,168.62 430.40,163.54 435.20,158.76 440.00,154.17 444.80,149.98 449.60,146.05 454.40,142.35 459.20,138.90 464.00,135.67 468.80,132.65 473.60,129.83 478.40,127.21 483.20,124.77 488.00,122.52 492.80,120.45 497.60,118.55 502.40,116.80 507.20,115.21 512.00,113.98 516.80,113.87 521.60,113.77 526.40,113.66 531.20,113.55 536.00,113.45 540.80,113.45 545.60,113.45 550.40,113.45 555.20,113.45 560.00,80.00" /><polyline fill="none" stroke="#005f73" stroke-width="2.5" points="80.00,471.21 84.80,471.21 89.60,471.21 94.40,471.21 99.20,471.21 104.00,471.21 108.80,471.21 113.60,471.21 118.40,471.21 123.20,471.21 128.00,471.21 132.80,471.21 137.60,469.44 142.40,466.41 147.20,463.54 152.00,459.61 156.80,457.05 161.60,453.53 166.40,450.22 171.20,446.16 176.00,442.39 180.80,437.79 185.60,433.48 190.40,428.09 195.20,423.11 200.00,417.38 204.80,411.62 209.60,405.88 214.40,400.60 219.20,394.96 224.00,389.42 228.80,384.28 233.60,379.28 238.40,374.40 243.20,369.88 248.00,345.74 252.80,341.86 257.60,338.06 262.40,334.13 267.20,330.30 272.00,326.48 276.80,323.97 281.60,321.41 286.40,318.68 291.20,315.75 296.00,312.77 300.80,308.23 305.60,303.63 310.40,298.79 315.20,293.80 320.00,288.74 324.80,282.99 329.60,277.14 334.40,271.30 339.20,265.38 344.00,259.49 348.80,253.61 353.60,247.73 358.40,241.94 363.20,236.14 368.00,230.41 372.80,224.17 377.60,217.96 382.40,211.69 387.20,205.43 392.00,199.25 396.80,193.08 401.60,186.98 406.40,181.04 411.20,175.14 416.00,169.35 420.80,164.02 425.60,158.83 430.40,153.85 435.20,149.17 440.00,144.67 444.80,140.96 449.60,137.50 454.40,134.27 459.20,131.26 464.00,128.48 468.80,127.38 473.60,126.30 478.40,125.26 483.20,124.25 488.00,123.26 492.80,122.28 497.60,121.31 502.40,120.34 507.20,119.35 512.00,118.56 516.80,117.99 521.60,117.43 526.40,116.87 531.20,116.30 536.00,115.74 540.80,115.28 545.60,114.82 550.40,114.36 555.20,113.91 560.00,80.00" /><circle cx="176.00" cy="437.11" r="4.0" fill="#bb3e03" /><circle cx="224.00" cy="385.45" r="4.0" fill="#bb3e03" /><circle cx="272.00" cy="326.48" r="4.0" fill="#bb3e03" /><circle cx="320.00" cy="288.74" r="4.0" fill="#bb3e03" /><circle cx="368.00" cy="230.41" r="4.0" fill="#bb3e03" /><circle cx="416.00" cy="169.35" r="4.0" fill="#bb3e03" /><circle cx="464.00" cy="126.68" r="4.0" fill="#bb3e03" /><circle cx="512.00" cy="125.43" r="4.0" fill="#bb3e03" /><circle cx="560.00" cy="80.00" r="4.0" fill="#bb3e03" /><rect x="640" y="80" width="480" height="500" fill="none" stroke="#333" stroke-width="1"/><text x="640" y="65" font-size="18" font-family="monospace">Female</text><line x1="640.00" y1="80" x2="640.00" y2="580" stroke="#eee" stroke-width="1"/><text x="630.00" y="600" font-size="12" font-family="monospace">20</text><line x1="688.00" y1="80" x2="688.00" y2="580" stroke="#eee" stroke-width="1"/><text x="678.00" y="600" font-size="12" font-family="monospace">30</text><line x1="736.00" y1="80" x2="736.00" y2="580" stroke="#eee" stroke-width="1"/><text x="726.00" y="600" font-size="12" font-family="monospace">40</text><line x1="784.00" y1="80" x2="784.00" y2="580" stroke="#eee" stroke-width="1"/><text x="774.00" y="600" font-size="12" font-family="monospace">50</text><line x1="832.00" y1="80" x2="832.00" y2="580" stroke="#eee" stroke-width="1"/><text x="822.00" y="600" font-size="12" font-family="monospace">60</text><line x1="880.00" y1="80" x2="880.00" y2="580" stroke="#eee" stroke-width="1"/><text x="870.00" y="600" font-size="12" font-family="monospace">70</text><line x1="928.00" y1="80" x2="928.00" y2="580" stroke="#eee" stroke-width="1"/><text x="918.00" y="600" font-size="12" font-family="monospace">80</text><line x1="976.00" y1="80" x2="976.00" y2="580" stroke="#eee" stroke-width="1"/><text x="966.00" y="600" font-size="12" font-family="monospace">90</text><line x1="1024.00" y1="80" x2="1024.00" y2="580" stroke="#eee" stroke-width="1"/><text x="1014.00" y="600" font-size="12" font-family="monospace">100</text><line x1="1072.00" y1="80" x2="1072.00" y2="580" stroke="#eee" stroke-width="1"/><text x="1062.00" y="600" font-size="12" font-family="monospace">110</text><line x1="1120.00" y1="80" x2="1120.00" y2="580" stroke="#eee" stroke-width="1"/><text x="1110.00" y="600" font-size="12" font-family="monospace">120</text><line x1="640" y1="524.44" x2="1120" y2="524.44" stroke="#eee" stroke-width="1"/><text x="580" y="528.44" font-size="12" font-family="monospace">1e-04</text><line x1="640" y1="413.33" x2="1120" y2="413.33" stroke="#eee" stroke-width="1"/><text x="580" y="417.33" font-size="12" font-family="monospace">1e-03</text><line x1="640" y1="302.22" x2="1120" y2="302.22" stroke="#eee" stroke-width="1"/><text x="580" y="306.22" font-size="12" font-family="monospace">1e-02</text><line x1="640" y1="191.11" x2="1120" y2="191.11" stroke="#eee" stroke-width="1"/><text x="580" y="195.11" font-size="12" font-family="monospace">1e-01</text><line x1="640" y1="80.00" x2="1120" y2="80.00" stroke="#eee" stroke-width="1"/><text x="580" y="84.00" font-size="12" font-family="monospace">1e+00</text><polyline fill="none" stroke="#999999" stroke-width="2.0" stroke-dasharray="6 4" points="640.00,519.00 644.80,519.00 649.60,522.86 654.40,527.06 659.20,527.06 664.00,527.06 668.80,522.86 673.60,519.00 678.40,515.42 683.20,508.98 688.00,506.05 692.80,500.69 697.60,498.21 702.40,493.61 707.20,489.41 712.00,485.55 716.80,481.97 721.60,477.06 726.40,474.05 731.20,469.85 736.00,464.76 740.80,461.27 745.60,456.98 750.40,452.10 755.20,448.53 760.00,443.62 764.80,439.87 769.60,435.73 774.40,431.92 779.20,427.83 784.00,424.05 788.80,420.07 793.60,416.39 798.40,412.97 803.20,409.40 808.00,373.34 812.80,370.86 817.60,368.35 822.40,365.80 827.20,363.38 832.00,360.93 836.80,358.34 841.60,355.75 846.40,353.00 851.20,350.11 856.00,347.11 860.80,342.18 865.60,337.04 870.40,331.76 875.20,326.11 880.00,320.28 884.80,314.25 889.60,308.06 894.40,301.76 899.20,295.35 904.00,288.94 908.80,282.50 913.60,276.01 918.40,269.60 923.20,263.15 928.00,256.80 932.80,250.24 937.60,243.75 942.40,237.22 947.20,230.69 952.00,224.26 956.80,217.82 961.60,211.44 966.40,205.16 971.20,198.88 976.00,192.64 980.80,186.57 985.60,180.63 990.40,174.91 995.20,169.48 1000.00,164.25 1004.80,159.44 1009.60,154.90 1014.40,150.60 1019.20,146.56 1024.00,142.75 1028.80,139.16 1033.60,135.79 1038.40,132.64 1043.20,129.70 1048.00,126.97 1052.80,124.44 1057.60,122.12 1062.40,119.99 1067.20,118.04 1072.00,116.26 1076.80,114.65 1081.60,113.77 1086.40,113.66 1091.20,113.55 1096.00,113.45 1100.80,113.45 1105.60,113.45 1110.40,113.45 1115.20,113.45 1120.00,80.00" /><polyline fill="none" stroke="#005f73" stroke-width="2.5" points="640.00,519.00 644.80,518.76 649.60,518.76 654.40,518.76 659.20,518.76 664.00,518.76 668.80,518.76 673.60,517.34 678.40,513.53 683.20,506.85 688.00,503.69 692.80,498.09 697.60,495.38 702.40,490.54 707.20,486.10 712.00,482.01 716.80,478.19 721.60,473.05 726.40,469.79 731.20,465.36 736.00,460.04 740.80,456.01 745.60,451.16 750.40,445.69 755.20,441.49 760.00,435.93 764.80,431.51 769.60,426.67 774.40,422.12 779.20,417.26 784.00,412.69 788.80,408.15 793.60,403.89 798.40,399.89 803.20,395.71 808.00,359.04 812.80,355.94 817.60,352.79 822.40,349.59 827.20,346.51 832.00,343.39 836.80,341.55 841.60,339.72 846.40,337.73 851.20,335.61 856.00,333.37 860.80,329.19 865.60,324.81 870.40,320.29 875.20,315.40 880.00,310.33 884.80,304.45 889.60,298.40 894.40,292.25 899.20,285.98 904.00,279.72 908.80,273.43 913.60,267.09 918.40,260.83 923.20,254.53 928.00,248.33 932.80,241.76 937.60,235.26 942.40,228.72 947.20,222.19 952.00,215.74 956.80,209.29 961.60,202.90 966.40,196.62 971.20,190.33 976.00,184.08 980.80,178.14 985.60,172.32 990.40,166.72 995.20,161.42 1000.00,156.32 1004.80,151.94 1009.60,147.82 1014.40,143.95 1019.20,140.31 1024.00,136.90 1028.80,134.15 1033.60,131.56 1038.40,129.13 1043.20,126.85 1048.00,124.73 1052.80,122.75 1057.60,120.92 1062.40,119.23 1067.20,117.66 1072.00,116.20 1076.80,114.59 1081.60,113.72 1086.40,113.62 1091.20,113.52 1096.00,113.42 1100.80,113.42 1105.60,113.42 1110.40,113.42 1115.20,113.42 1120.00,80.00" /><circle cx="736.00" cy="455.31" r="4.0" fill="#bb3e03" /><circle cx="784.00" cy="408.91" r="4.0" fill="#bb3e03" /><circle cx="832.00" cy="343.39" r="4.0" fill="#bb3e03" /><circle cx="880.00" cy="310.33" r="4.0" fill="#bb3e03" /><circle cx="928.00" cy="248.33" r="4.0" fill="#bb3e03" /><circle cx="976.00" cy="184.08" r="4.0" fill="#bb3e03" /><circle cx="1024.00" cy="135.43" r="4.0" fill="#bb3e03" /><circle cx="1072.00" cy="116.11" r="4.0" fill="#bb3e03" /><circle cx="1120.00" cy="80.00" r="4.0" fill="#bb3e03" /><polyline fill="none" stroke="#005f73" stroke-width="2.5" points="80.00,630.00 115.00,630.00" /><text x="125" y="634" font-size="13" font-family="monospace">estimated 2021 healthy-retiree curve</text><polyline fill="none" stroke="#999999" stroke-width="2.0" stroke-dasharray="6 4" points="420.00,630.00 455.00,630.00" /><text x="385" y="634" font-size="13" font-family="monospace">projected PubT-2010(B) reference</text><circle cx="760.00" cy="630.00" r="4.0" fill="#bb3e03" /><text x="775" y="634" font-size="13" font-family="monospace">published 2021 sample checkpoint</text></svg>